# xmcd
#
# Track frame offsets:
#	150
#	2187
#	11731
#	22396
#	33992
#	48303
#	58517
#	68413
#	83622
#	95787
#	108116
#	123138
#	137302
#	151321
#
# Disc length: 2060 seconds
#
# Revision: 0
# Processed by: cddbd v1.5.2PL0 Copyright (c) Steve Scherf et al.
# Submitted via: EasyCDDAExtractor 16.0.6.1
#
DISCID=a5080a0e
DTITLE=Άνευ ερμηνευτού - Ο Εθνικός ύμνος και εμβατ. Εν. Δυν.-μπ. Αστ. πόλεων
DYEAR=2012
DGENRE=Πατριωτική
TTITLE0=Το εμβατήριο της σημαίας [διασκ. Δημ. Μπουκουβάλας] 
TTITLE1=Ευζωνάκι [διασκ. Δημ. Μπουκουβάλας]
TTITLE2=Όλη δόξα, όλη χάρη [Γ. Γεωργόπουλου-Ι. Σακελλαρίδης]
TTITLE3=Η σημαία μας [μουσ. Δημ. Μπουκουβάλας]
TTITLE4=Ο ασάλευτος Ψηλορείτης [μουσ. Δημ. Μπουκουβάλας]
TTITLE5=Μαύρη είναι η νύχτα [A. Sailler-Αλ. Ραγκαβή, διασκ. Δ.Μπουκουβάλας]
TTITLE6=Γυρνούμε από την μάχη [μουσ. Δ. Μπουκουβάλας]
TTITLE7=Μικρέ μου στρατιώτη [μουσ. Δ. Μπουκουβάλας]
TTITLE8=Από φλόγες η Κρήτη [μουσ. Δ. Μπουκουβάλας]
TTITLE9=Η παρέλασις [μουσ. Δημ. Μπουκουβάλας]
TTITLE10=Ύμνος αεροπορίας [μουσ. Δημ. Μπουκουβάλας]
TTITLE11=Αλλαγή φρουράς [μουσ. Δημ. Μπουκουβάλας]
TTITLE12=Ο ναύτης του Αιγαίου [μουσ. Δημ. Μπουκουβάλας]
TTITLE13=Εθνικός ύμνος [Νικ. Μάτζαρος-Διον. Σολωμός, διασκ. Δ.Μπουκουβάλας]
EXTD=
EXTT0=
EXTT1=
EXTT2=
EXTT3=
EXTT4=
EXTT5=
EXTT6=
EXTT7=
EXTT8=
EXTT9=
EXTT10=
EXTT11=
EXTT12=
EXTT13=
PLAYORDER=
